<svg width="35" height="35" viewBox="0 0 35 35" fill="none" xmlns="http://www.w3.org/2000/svg">
<rect width="35" height="35" rx="17.5" fill="#FFF0F0"/>
<path d="M14.5 19.75C14.5 20.72 15.25 21.5 16.17 21.5H18.05C18.85 21.5 19.5 20.82 19.5 19.97C19.5 19.06 19.1 18.73 18.51 18.52L15.5 17.47C14.91 17.26 14.51 16.94 14.51 16.02C14.51 15.18 15.16 14.49 15.96 14.49H17.84C18.76 14.49 19.51 15.27 19.51 16.24" stroke="#F87675" stroke-width="1.5" stroke-linecap="round" stroke-linejoin="round"/>
<path d="M17 13.5V22.5" stroke="#F87675" stroke-width="1.5" stroke-linecap="round" stroke-linejoin="round"/>
<path d="M27 18C27 23.52 22.52 28 17 28C11.48 28 7 23.52 7 18C7 12.48 11.48 8 17 8" stroke="#F87675" stroke-width="1.5" stroke-linecap="round" stroke-linejoin="round"/>
<path d="M27 12V8H23" stroke="#F87675" stroke-width="1.5" stroke-linecap="round" stroke-linejoin="round"/>
<path d="M22 13L27 8" stroke="#F87675" stroke-width="1.5" stroke-linecap="round" stroke-linejoin="round"/>
</svg>
