<svg width="35" height="35" viewBox="0 0 35 35" fill="none" xmlns="http://www.w3.org/2000/svg">
<rect width="35" height="35" rx="17.5" fill="#EEFCF0"/>
<rect width="24" height="24" transform="translate(6 6)" fill="#EEFCF0"/>
<path d="M15.5 19.75C15.5 20.72 16.25 21.5 17.17 21.5H19.05C19.85 21.5 20.5 20.82 20.5 19.97C20.5 19.06 20.1 18.73 19.51 18.52L16.5 17.47C15.91 17.26 15.51 16.94 15.51 16.02C15.51 15.18 16.16 14.49 16.96 14.49H18.84C19.76 14.49 20.51 15.27 20.51 16.24" stroke="#2EAC57" stroke-width="1.5" stroke-linecap="round" stroke-linejoin="round"/>
<path d="M18 13.5V22.5" stroke="#2EAC57" stroke-width="1.5" stroke-linecap="round" stroke-linejoin="round"/>
<path d="M28 18C28 23.52 23.52 28 18 28C12.48 28 8 23.52 8 18C8 12.48 12.48 8 18 8" stroke="#2EAC57" stroke-width="1.5" stroke-linecap="round" stroke-linejoin="round"/>
<path d="M23 9V13H27" stroke="#2EAC57" stroke-width="1.5" stroke-linecap="round" stroke-linejoin="round"/>
<path d="M28 8L23 13" stroke="#2EAC57" stroke-width="1.5" stroke-linecap="round" stroke-linejoin="round"/>
</svg>
